<?xml version="1.0" standalone="no"?>
<!DOCTYPE svg PUBLIC "-//W3C//DTD SVG 20010904//EN"
 "http://www.w3.org/TR/2001/REC-SVG-20010904/DTD/svg10.dtd">
<svg version="1.0" xmlns="http://www.w3.org/2000/svg"
 width="300.000000pt" height="300.000000pt" viewBox="0 0 300.000000 300.000000"
 preserveAspectRatio="xMidYMid meet">
<metadata>
Created by potrace 1.11, written by Peter Selinger 2001-2013
</metadata>
<g transform="translate(0.000000,300.000000) scale(0.100000,-0.100000)"
fill="#000000" stroke="none">
<path d="M1385 2776 c-31 -13 -52 -44 -57 -84 -2 -19 -49 -48 -253 -161 -227
-126 -252 -137 -270 -125 -50 35 -129 1 -141 -60 -8 -47 16 -90 63 -109 37
-14 40 -19 65 -104 14 -48 38 -126 53 -173 54 -170 55 -177 36 -194 -10 -9
-25 -16 -34 -16 -10 0 -110 23 -222 51 -170 43 -205 55 -205 69 0 50 -74 87
-128 65 -68 -29 -74 -132 -10 -166 34 -18 88 -12 114 12 l23 21 178 -42 c98
-23 194 -46 215 -51 28 -7 39 -16 47 -40 9 -28 7 -34 -23 -67 -19 -20 -93
-104 -165 -187 l-131 -150 -45 -1 c-74 -1 -116 -58 -93 -126 10 -29 52 -58 84
-58 10 0 32 5 49 11 35 13 11 24 275 -126 80 -45 191 -108 248 -140 56 -31
105 -61 107 -66 3 -4 -2 -13 -12 -18 -44 -25 -46 -28 -34 -50 l12 -21 39 26
c22 15 40 31 40 36 0 5 15 1 33 -10 17 -11 59 -34 92 -52 33 -18 65 -36 70
-40 6 -4 46 -28 90 -52 374 -208 355 -196 355 -230 0 -37 48 -88 84 -88 45 0
76 19 92 55 16 39 11 74 -15 102 -17 17 -15 26 36 183 29 91 55 174 57 185 3
11 25 81 49 155 24 74 68 210 97 303 47 147 56 167 75 167 12 0 34 13 50 30
33 35 36 80 7 119 -19 26 -19 27 4 96 33 102 154 448 157 450 1 1 17 7 35 15
103 41 57 196 -53 176 -18 -4 -40 -15 -50 -26 -13 -14 -31 -20 -62 -20 -36 0
-43 -3 -43 -19 0 -18 25 -34 46 -30 21 4 34 -2 34 -15 0 -8 11 -28 25 -44 13
-16 22 -31 20 -34 -3 -2 -43 -116 -90 -253 -47 -137 -86 -250 -88 -251 -22
-21 -52 13 -282 316 -584 772 -536 706 -525 736 30 77 -49 153 -125 120z m37
-190 c14 -20 67 -263 62 -284 -4 -15 -1 -27 9 -35 9 -7 41 -113 81 -266 l65
-254 -22 -29 -22 -28 -152 6 c-83 3 -171 7 -195 9 -24 2 -80 5 -125 6 -79 3
-83 4 -92 30 -6 17 -23 33 -49 44 l-39 18 -68 217 -67 217 25 40 c14 22 27 50
29 62 2 18 53 50 243 155 l240 133 35 -16 c19 -9 38 -20 42 -25z m171 -158
c58 -77 91 -128 82 -128 -9 0 -15 -9 -15 -24 0 -13 6 -24 13 -23 49 2 59 -9
312 -344 155 -205 254 -344 248 -350 -5 -5 -90 11 -211 41 -111 27 -208 50
-216 50 -8 0 -23 17 -33 38 -10 21 -32 44 -51 54 -19 9 -35 18 -37 20 -3 3
-114 430 -121 467 -3 12 0 29 7 37 14 17 5 44 -16 44 -8 0 -15 3 -15 8 0 4
-16 65 -34 135 -19 71 -28 123 -21 115 6 -7 55 -70 108 -140z m-263 -773 c257
-13 253 -13 272 -37 10 -13 18 -26 18 -29 0 -4 -56 -63 -124 -133 -121 -122
-126 -126 -160 -121 -45 8 -94 -17 -107 -54 -9 -25 -15 -28 -62 -30 -29 -2
-68 -4 -87 -6 -19 -2 -75 -6 -125 -10 -49 -3 -101 -8 -115 -10 -14 -2 -70 -7
-125 -11 -55 -3 -103 -8 -107 -10 -9 -6 -38 7 -38 17 0 5 75 94 168 199 162
184 168 190 205 190 29 0 44 7 65 29 30 33 4 32 322 16z m667 -97 c223 -54
246 -66 201 -100 -59 -43 -58 -42 -44 -61 12 -16 15 -15 50 8 21 14 41 23 46
20 4 -3 -3 -40 -17 -82 -104 -326 -165 -520 -167 -528 -16 -71 -120 -364 -130
-368 -8 -3 -21 0 -29 6 -9 7 -128 172 -266 367 -164 233 -248 360 -244 370 3
8 7 37 8 63 1 47 3 49 135 182 74 73 137 132 142 129 10 -7 78 26 78 37 0 15
15 12 237 -43z m-749 -378 c23 -23 40 -30 69 -30 37 -1 40 -4 100 -92 l62 -91
-40 -30 c-32 -23 -37 -32 -28 -43 16 -19 25 -18 63 11 l33 25 65 -93 c36 -50
115 -163 177 -250 71 -101 103 -154 89 -146 -13 7 -108 60 -213 119 -104 59
-210 118 -235 132 -25 14 -135 76 -245 138 -110 62 -213 120 -230 129 -149 82
-326 185 -331 192 -3 5 12 9 33 10 21 0 47 2 58 3 11 2 61 6 110 10 50 4 108
9 130 11 22 2 83 7 135 10 52 4 96 8 97 9 1 1 18 3 37 4 26 2 41 -4 64 -28z"/>
<path d="M944 2328 c1 -20 7 -23 49 -26 46 -3 48 -2 45 20 -3 19 -10 23 -49
26 -43 3 -46 2 -45 -20z"/>
<path d="M1120 2315 c0 -19 6 -22 50 -24 44 -2 50 0 50 19 0 11 -3 20 -7 21
-5 0 -27 2 -50 3 -38 2 -43 0 -43 -19z"/>
<path d="M1306 2322 c-3 -3 -6 -14 -6 -24 0 -18 4 -19 75 -22 13 -1 21 7 23
22 3 18 -1 22 -25 23 -15 0 -36 2 -45 4 -9 2 -19 0 -22 -3z"/>
<path d="M2032 1346 c-36 -26 -37 -28 -24 -52 8 -14 14 -13 50 11 35 23 40 30
31 46 -12 24 -16 23 -57 -5z"/>
<path d="M1887 1245 c-39 -27 -42 -32 -28 -54 8 -12 16 -10 50 12 36 24 40 30
31 47 -6 11 -12 20 -13 20 -1 0 -19 -11 -40 -25z"/>
<path d="M1738 1143 c-42 -28 -45 -35 -24 -52 11 -10 22 -7 50 11 40 26 41 28
24 50 -12 15 -17 14 -50 -9z"/>
<path d="M1601 1049 c-13 -11 -31 -24 -40 -29 -15 -8 -14 -10 1 -26 15 -16 19
-15 52 5 38 24 45 41 24 59 -9 7 -20 5 -37 -9z"/>
<path d="M1293 839 c-35 -22 -40 -38 -22 -56 9 -9 21 -5 48 15 20 14 38 27 40
29 5 3 -20 33 -28 33 -3 0 -21 -10 -38 -21z"/>
<path d="M1838 2278 c-10 -27 4 -38 47 -38 34 0 44 4 48 20 3 11 2 20 -1 21
-66 8 -90 7 -94 -3z"/>
<path d="M2019 2276 c0 0 -2 -11 -5 -23 -3 -19 1 -21 46 -25 46 -3 50 -1 50
20 0 16 -6 22 -22 23 -13 1 -33 3 -45 4 -13 1 -23 2 -24 1z"/>
<path d="M2199 2269 c-7 -36 -8 -49 -1 -50 79 -8 92 -6 92 18 0 19 -5 23 -29
23 -16 0 -36 3 -45 6 -9 3 -16 5 -17 3z"/>
<path d="M997 635 c-32 -22 -36 -29 -27 -46 11 -19 12 -19 41 -2 41 24 51 37
43 57 -8 21 -13 20 -57 -9z"/>
<path d="M768 557 c-34 -32 -42 -60 -28 -102 18 -55 78 -77 132 -49 15 8 32
23 38 33 14 26 12 82 -3 102 -34 44 -101 51 -139 16z"/>
</g>
</svg>
